<svg width="153" height="38" viewBox="0 0 153 38" fill="none" xmlns="http://www.w3.org/2000/svg">
<path d="M13.5152 16.36H9.83516V33H2.99516V16.36H0.515159V10.68H2.99516V10.04C2.99516 7.29333 3.78183 5.21333 5.35516 3.8C6.92849 2.36 9.23516 1.64 12.2752 1.64C12.7818 1.64 13.1552 1.65333 13.3952 1.68V7.48C12.0885 7.4 11.1685 7.58667 10.6352 8.04C10.1018 8.49333 9.83516 9.30666 9.83516 10.48V10.68H13.5152V16.36ZM17.3692 8.36C16.1692 8.36 15.1826 8.01333 14.4092 7.32C13.6626 6.6 13.2892 5.72 13.2892 4.68C13.2892 3.61333 13.6626 2.73333 14.4092 2.04C15.1826 1.32 16.1692 0.959998 17.3692 0.959998C18.5426 0.959998 19.5026 1.32 20.2492 2.04C21.0226 2.73333 21.4092 3.61333 21.4092 4.68C21.4092 5.72 21.0226 6.6 20.2492 7.32C19.5026 8.01333 18.5426 8.36 17.3692 8.36ZM20.7692 10.68V33H13.9292V10.68H20.7692ZM36.5261 10.44C39.1394 10.44 41.2194 11.2933 42.7661 13C44.3394 14.68 45.1261 17 45.1261 19.96V33H38.3261V20.88C38.3261 19.3867 37.9394 18.2267 37.1661 17.4C36.3928 16.5733 35.3528 16.16 34.0461 16.16C32.7394 16.16 31.6994 16.5733 30.9261 17.4C30.1528 18.2267 29.7661 19.3867 29.7661 20.88V33H22.9261V10.68H29.7661V13.64C30.4594 12.6533 31.3928 11.88 32.5661 11.32C33.7394 10.7333 35.0594 10.44 36.5261 10.44ZM56.1592 33.32C54.2126 33.32 52.4792 32.9867 50.9592 32.32C49.4392 31.6533 48.2392 30.7467 47.3592 29.6C46.4792 28.4267 45.9859 27.12 45.8792 25.68H52.6392C52.7192 26.4533 53.0792 27.08 53.7192 27.56C54.3592 28.04 55.1459 28.28 56.0792 28.28C56.9326 28.28 57.5859 28.12 58.0392 27.8C58.5192 27.4533 58.7592 27.0133 58.7592 26.48C58.7592 25.84 58.4259 25.3733 57.7592 25.08C57.0926 24.76 56.0126 24.4133 54.5192 24.04C52.9192 23.6667 51.5859 23.28 50.5192 22.88C49.4526 22.4533 48.5326 21.8 47.7592 20.92C46.9859 20.0133 46.5992 18.8 46.5992 17.28C46.5992 16 46.9459 14.84 47.6392 13.8C48.3592 12.7333 49.3992 11.8933 50.7592 11.28C52.1459 10.6667 53.7859 10.36 55.6792 10.36C58.4792 10.36 60.6792 11.0533 62.2792 12.44C63.9059 13.8267 64.8392 15.6667 65.0792 17.96H58.7592C58.6526 17.1867 58.3059 16.5733 57.7192 16.12C57.1592 15.6667 56.4126 15.44 55.4792 15.44C54.6792 15.44 54.0659 15.6 53.6392 15.92C53.2126 16.2133 52.9992 16.6267 52.9992 17.16C52.9992 17.8 53.3326 18.28 53.9992 18.6C54.6926 18.92 55.7592 19.24 57.1992 19.56C58.8526 19.9867 60.1992 20.4133 61.2392 20.84C62.2792 21.24 63.1859 21.9067 63.9592 22.84C64.7592 23.7467 65.1726 24.9733 65.1992 26.52C65.1992 27.8267 64.8259 29 64.0792 30.04C63.3592 31.0533 62.3059 31.8533 60.9192 32.44C59.5592 33.0267 57.9726 33.32 56.1592 33.32ZM70.0239 8.36C68.8239 8.36 67.8372 8.01333 67.0639 7.32C66.3172 6.6 65.9439 5.72 65.9439 4.68C65.9439 3.61333 66.3172 2.73333 67.0639 2.04C67.8372 1.32 68.8239 0.959998 70.0239 0.959998C71.1972 0.959998 72.1572 1.32 72.9039 2.04C73.6772 2.73333 74.0639 3.61333 74.0639 4.68C74.0639 5.72 73.6772 6.6 72.9039 7.32C72.1572 8.01333 71.1972 8.36 70.0239 8.36ZM73.4239 10.68V33H66.5839V10.68H73.4239ZM104.061 10.44C106.834 10.44 109.034 11.28 110.661 12.96C112.314 14.64 113.141 16.9733 113.141 19.96V33H106.341V20.88C106.341 19.44 105.954 18.3333 105.181 17.56C104.434 16.76 103.394 16.36 102.061 16.36C100.727 16.36 99.6741 16.76 98.9008 17.56C98.1541 18.3333 97.7808 19.44 97.7808 20.88V33H90.9808V20.88C90.9808 19.44 90.5941 18.3333 89.8208 17.56C89.0741 16.76 88.0341 16.36 86.7008 16.36C85.3675 16.36 84.3141 16.76 83.5408 17.56C82.7941 18.3333 82.4208 19.44 82.4208 20.88V33H75.5808V10.68H82.4208V13.48C83.1141 12.5467 84.0208 11.8133 85.1408 11.28C86.2608 10.72 87.5275 10.44 88.9408 10.44C90.6208 10.44 92.1141 10.8 93.4208 11.52C94.7541 12.24 95.7941 13.2667 96.5408 14.6C97.3141 13.3733 98.3675 12.3733 99.7008 11.6C101.034 10.8267 102.487 10.44 104.061 10.44Z" fill="#3B3B3B"/>
<path d="M121.965 4.92V33H115.125V4.92H121.965ZM144.121 37.8L140.521 32.96C139.455 33.1733 138.415 33.28 137.401 33.28C134.761 33.28 132.335 32.6667 130.121 31.44C127.935 30.2133 126.188 28.5067 124.881 26.32C123.601 24.1067 122.961 21.6267 122.961 18.88C122.961 16.1333 123.601 13.6667 124.881 11.48C126.188 9.29333 127.935 7.58667 130.121 6.36C132.335 5.13333 134.761 4.52 137.401 4.52C140.041 4.52 142.455 5.13333 144.641 6.36C146.855 7.58667 148.588 9.29333 149.841 11.48C151.121 13.6667 151.761 16.1333 151.761 18.88C151.761 21.28 151.268 23.48 150.281 25.48C149.321 27.4533 147.975 29.0933 146.241 30.4L152.401 37.8H144.121ZM129.961 18.88C129.961 21.36 130.628 23.3467 131.961 24.84C133.321 26.3067 135.135 27.04 137.401 27.04C139.641 27.04 141.428 26.2933 142.761 24.8C144.121 23.3067 144.801 21.3333 144.801 18.88C144.801 16.4 144.121 14.4267 142.761 12.96C141.428 11.4667 139.641 10.72 137.401 10.72C135.135 10.72 133.321 11.4533 131.961 12.92C130.628 14.3867 129.961 16.3733 129.961 18.88Z" fill="#80EF80"/>
</svg>
